<?xml version="1.0" encoding="UTF-8" standalone="no"?>
<svg xmlns="http://www.w3.org/2000/svg" height="96" width="96" version="1.1" viewBox="0 0 96 96">
 <path fill="#808080" d="m11.73 69.19c10.57 18.31 32.91 25.64 51.98 17.99l-2.02-3.499c-17.16 6.603-37.01-0.05477-46.5-16.49-2.4-4.157-3.919-8.568-4.626-13.03l-4.032-0.0044c0.746 5.14 2.446 10.25 5.202 15.03zm-5.176-26.98h4.016c1.75-10.91 8.21-20.97 18.54-26.93 10.33-5.968 22.28-6.537 32.6-2.58l2.01-3.479c-11.55-4.616-25.03-4.098-36.61 2.589-11.59 6.69-18.77 18.09-20.56 30.4zm67.5 39c16.18-12.7 21.01-35.71 10.43-54.02-2.76-4.78-6.32-8.8-10.42-12.01l-2.012 3.494c3.513 2.845 6.574 6.366 8.969 10.51 9.49 16.44 5.323 36.96-8.982 48.52z"/>
</svg>
